<svg xmlns="http://www.w3.org/2000/svg" xmlns:xlink="http://www.w3.org/1999/xlink" viewBox="0 0 2000 1400"><path fill="#007024" d="M0 0h2000v1400H0z"/><path fill="#F7C600" d="m170 700 830-530 830 530-830 530z"/><circle cx="1000" cy="700" r="350" fill="#212A74"/><path fill="#FFF" d="M661.21 612.131a350 350 0 0 1 18.654-53.598 850 850 0 0 1 666.687 190.482 350 350 0 0 1-12.477 55.363 800 800 0 0 0-672.865-192.247Z"/><defs><path id="a" d="M659.735 603.76a808.5 808.5 0 0 1 680.013 194.29"/></defs><text fill="#007024" font-family="Verdana" font-size="45" font-weight="600" letter-spacing="5" text-anchor="middle" word-spacing="10">
        <textPath xlink:href="#a" startOffset="50%">ORDEM <tspan font-size="41">E</tspan> PROGRESSO</textPath>
    </text><g fill="#FFF" stroke="#FFF"><path d="m1103.95 578.95-8.817 27.135 23.083-16.77h-28.532l23.083 16.77zM714.75 622l-8.817 27.135 23.083-16.77h-28.532l23.083 16.77zM870.5 698l-7.347 22.613 19.235-13.976h-23.776l19.235 13.976zM1091.7 670.4l-5.878 18.09 15.389-11.18h-19.022l15.389 11.18zM743.1 769l-8.817 27.135 23.083-16.77h-28.532l23.083 16.77zM703.9 801.95l-7.347 22.613 19.235-13.976h-23.776l19.235 13.976zM777.05 754.25l-4.114 12.663 10.771-7.826h-13.314l10.771 7.826zM817.65 804.4l-7.347 22.613 19.235-13.976h-23.776l19.235 13.976zM808.2 843.3l-5.878 18.09 15.389-11.18h-19.022l15.389 11.18zM860 874l-8.817 27.135 23.083-16.77h-28.532l23.083 16.77zM999.3 741.75l-7.347 22.613 19.235-13.976h-23.776l19.235 13.976zM965.7 780.65l-5.878 18.09 15.389-11.18h-19.022l15.389 11.18zM984.95 803.6l-4.114 12.663 10.771-7.826h-13.314l10.771 7.826zM1000 843.55l-8.817 27.135 23.083-16.77h-28.532l23.083 16.77zM1038.85 773.95l-7.347 22.613 19.235-13.976h-23.776l19.235 13.976zM1245 805.05l-8.817 27.135 23.083-16.77h-28.532l23.083 16.77zM1294.35 812.85l-5.878 18.09 15.389-11.18h-19.022l15.389 11.18zM1258.3 842.55l-7.347 22.613 19.235-13.976h-23.776l19.235 13.976zM1237.65 868.8l-7.347 22.613 19.235-13.976h-23.776l19.235 13.976zM1208.95 888.45l-5.878 18.09 15.389-11.18h-19.022l15.389 11.18zM1175 886.35l-5.878 18.09 15.389-11.18h-19.022l15.389 11.18zM1175 917.45l-7.347 22.613 19.235-13.976h-23.776l19.235 13.976zM1175.35 952.15l-5.878 18.09 15.389-11.18h-19.022l15.389 11.18zM1134.4 892.65l-5.878 18.09 15.389-11.18h-19.022l15.389 11.18zM1103.95 924.45l-7.347 22.613 19.235-13.976h-23.776l19.235 13.976zM1075.95 884.25l-5.878 18.09 15.389-11.18h-19.022l15.389 11.18zM1000.7 966.25l-2.939 9.045 7.694-5.59h-9.51l7.694 5.59z"/></g></svg>